
<svg width="254" height="83" viewBox="0 0 254 83" fill="none" xmlns="http://www.w3.org/2000/svg">
<path d="M18.88 66.768C15.1253 66.768 11.9253 66.0853 9.28 64.72C6.67733 63.3547 4.43733 61.52 2.56 59.216L7.552 54.544C9.13067 56.464 10.8587 57.9147 12.736 58.896C14.656 59.8773 16.832 60.368 19.264 60.368C22.1227 60.368 24.2773 59.728 25.728 58.448C27.1787 57.168 27.904 55.44 27.904 53.264C27.904 51.5147 27.392 50.128 26.368 49.104C25.344 48.08 23.5307 47.312 20.928 46.8L16.96 46.096C12.608 45.2853 9.344 43.856 7.168 41.808C4.992 39.76 3.904 36.944 3.904 33.36C3.904 31.3973 4.26667 29.6267 4.992 28.048C5.76 26.4267 6.80533 25.0827 8.128 24.016C9.49333 22.9067 11.136 22.0533 13.056 21.456C14.976 20.8587 17.1307 20.56 19.52 20.56C22.8907 20.56 25.8133 21.1573 28.288 22.352C30.7627 23.504 32.8747 25.1893 34.624 27.408L29.568 31.888C28.416 30.3947 27.008 29.2 25.344 28.304C23.68 27.408 21.6107 26.96 19.136 26.96C16.576 26.96 14.592 27.472 13.184 28.496C11.776 29.52 11.072 31.0133 11.072 32.976C11.072 34.8533 11.648 36.2613 12.8 37.2C13.952 38.096 15.744 38.7787 18.176 39.248L22.144 40.08C26.624 40.9333 29.888 42.384 31.936 44.432C34.0267 46.48 35.072 49.296 35.072 52.88C35.072 54.9707 34.7093 56.8693 33.984 58.576C33.2587 60.2827 32.192 61.7547 30.784 62.992C29.4187 64.1867 27.7333 65.1253 25.728 65.808C23.7227 66.448 21.44 66.768 18.88 66.768ZM62.506 66C60.6713 66 59.2633 65.488 58.282 64.464C57.3007 63.3973 56.7033 62.0533 56.49 60.432H56.17C55.53 62.5227 54.3567 64.1013 52.65 65.168C50.9433 66.2347 48.874 66.768 46.442 66.768C42.986 66.768 40.3193 65.872 38.442 64.08C36.6073 62.288 35.69 59.8773 35.69 56.848C35.69 53.52 36.8847 51.024 39.274 49.36C41.706 47.696 45.2473 46.864 49.898 46.864H55.914V44.048C55.914 42 55.3593 40.4213 54.25 39.312C53.1407 38.2027 51.4127 37.648 49.066 37.648C47.1033 37.648 45.5033 38.0747 44.266 38.928C43.0287 39.7813 41.9833 40.8693 41.13 42.192L36.97 38.416C38.0793 36.5387 39.6367 35.0027 41.642 33.808C43.6473 32.5707 46.2713 31.952 49.514 31.952C53.8233 31.952 57.13 32.9547 59.434 34.96C61.738 36.9653 62.89 39.8453 62.89 43.6V60.304H66.41V66H62.506ZM48.426 61.456C50.602 61.456 52.394 60.9867 53.802 60.048C55.21 59.0667 55.914 57.7653 55.914 56.144V51.344H50.026C45.2047 51.344 42.794 52.8373 42.794 55.824V56.976C42.794 58.4693 43.2847 59.6 44.266 60.368C45.29 61.0933 46.6767 61.456 48.426 61.456ZM97.311 69.136C97.311 72.592 95.9883 75.1947 93.343 76.944C90.6977 78.6933 86.3883 79.568 80.415 79.568C77.6843 79.568 75.359 79.376 73.439 78.992C71.5617 78.6507 70.0043 78.1387 68.767 77.456C67.5723 76.7733 66.6977 75.9413 66.143 74.96C65.5883 73.9787 65.311 72.848 65.311 71.568C65.311 69.7333 65.8017 68.304 66.783 67.28C67.807 66.256 69.215 65.552 71.007 65.168V64.464C68.4897 63.6533 67.231 61.9467 67.231 59.344C67.231 57.6373 67.807 56.336 68.959 55.44C70.111 54.5013 71.4977 53.84 73.119 53.456V53.2C71.1563 52.2613 69.6417 50.96 68.575 49.296C67.551 47.5893 67.039 45.6053 67.039 43.344C67.039 39.9307 68.1697 37.1787 70.431 35.088C72.735 32.9973 76.0203 31.952 80.287 31.952C82.6337 31.952 84.639 32.2933 86.303 32.976V32.08C86.303 30.5867 86.6443 29.4347 87.327 28.624C88.0523 27.7707 89.1617 27.344 90.655 27.344H95.775V32.976H88.991V34.32C90.4843 35.3013 91.6363 36.5813 92.447 38.16C93.2577 39.696 93.663 41.424 93.663 43.344C93.663 46.7147 92.511 49.4453 90.207 51.536C87.903 53.584 84.6177 54.608 80.351 54.608C78.7297 54.608 77.279 54.4373 75.999 54.096C75.1457 54.3947 74.399 54.8213 73.759 55.376C73.119 55.888 72.799 56.5707 72.799 57.424C72.799 58.32 73.2043 58.96 74.015 59.344C74.8257 59.728 75.9777 59.92 77.471 59.92H85.663C89.759 59.92 92.7243 60.752 94.559 62.416C96.3937 64.0373 97.311 66.2773 97.311 69.136ZM90.783 69.904C90.783 68.752 90.335 67.8347 89.439 67.152C88.5857 66.4693 87.007 66.128 84.703 66.128H73.439C71.903 67.024 71.135 68.304 71.135 69.968C71.135 71.3333 71.6683 72.4213 72.735 73.232C73.8443 74.0853 75.7003 74.512 78.303 74.512H82.655C88.0737 74.512 90.783 72.976 90.783 69.904ZM80.351 49.552C82.399 49.552 83.9777 49.104 85.087 48.208C86.239 47.2693 86.815 45.84 86.815 43.92V42.64C86.815 40.72 86.239 39.312 85.087 38.416C83.9777 37.4773 82.399 37.008 80.351 37.008C78.303 37.008 76.703 37.4773 75.551 38.416C74.4417 39.312 73.887 40.72 73.887 42.64V43.92C73.887 45.84 74.4417 47.2693 75.551 48.208C76.703 49.104 78.303 49.552 80.351 49.552ZM110.063 66.768C107.674 66.768 105.54 66.3627 103.663 65.552C101.786 64.7413 100.186 63.5893 98.863 62.096C97.5403 60.56 96.5163 58.7253 95.791 56.592C95.1083 54.416 94.767 52.0053 94.767 49.36C94.767 46.7147 95.1083 44.3253 95.791 42.192C96.5163 40.016 97.5403 38.1813 98.863 36.688C100.186 35.152 101.786 33.9787 103.663 33.168C105.54 32.3573 107.674 31.952 110.063 31.952C112.495 31.952 114.628 32.3787 116.463 33.232C118.34 34.0853 119.898 35.28 121.135 36.816C122.372 38.3093 123.29 40.0587 123.887 42.064C124.527 44.0693 124.847 46.224 124.847 48.528V51.152H101.999V52.24C101.999 54.8 102.746 56.912 104.239 58.576C105.775 60.1973 107.951 61.008 110.767 61.008C112.815 61.008 114.543 60.56 115.951 59.664C117.359 58.768 118.554 57.552 119.535 56.016L123.631 60.048C122.394 62.096 120.602 63.7387 118.255 64.976C115.908 66.1707 113.178 66.768 110.063 66.768ZM110.063 37.392C108.868 37.392 107.759 37.6053 106.735 38.032C105.754 38.4587 104.9 39.056 104.175 39.824C103.492 40.592 102.959 41.5093 102.575 42.576C102.191 43.6427 101.999 44.816 101.999 46.096V46.544H117.487V45.904C117.487 43.344 116.826 41.296 115.503 39.76C114.18 38.1813 112.367 37.392 110.063 37.392ZM154.734 66.768C148.889 66.768 144.302 64.8053 140.974 60.88C137.646 56.912 135.982 51.1733 135.982 43.664C135.982 39.9093 136.409 36.6027 137.262 33.744C138.116 30.8853 139.353 28.4747 140.974 26.512C142.596 24.5493 144.558 23.0773 146.862 22.096C149.209 21.072 151.833 20.56 154.734 20.56C158.617 20.56 161.86 21.4133 164.462 23.12C167.108 24.8267 169.177 27.344 170.67 30.672L164.59 34C163.822 31.8667 162.628 30.1813 161.006 28.944C159.428 27.664 157.337 27.024 154.734 27.024C151.278 27.024 148.569 28.1973 146.606 30.544C144.644 32.8907 143.662 36.1333 143.662 40.272V47.056C143.662 51.1947 144.644 54.4373 146.606 56.784C148.569 59.1307 151.278 60.304 154.734 60.304C157.422 60.304 159.598 59.6213 161.262 58.256C162.969 56.848 164.228 55.056 165.038 52.88L170.862 56.4C169.369 59.6427 167.278 62.1813 164.59 64.016C161.902 65.8507 158.617 66.768 154.734 66.768ZM185.953 66.768C183.649 66.768 181.537 66.3627 179.617 65.552C177.74 64.7413 176.14 63.5893 174.817 62.096C173.494 60.56 172.47 58.7253 171.745 56.592C171.02 54.416 170.657 52.0053 170.657 49.36C170.657 46.7147 171.02 44.3253 171.745 42.192C172.47 40.016 173.494 38.1813 174.817 36.688C176.14 35.152 177.74 33.9787 179.617 33.168C181.537 32.3573 183.649 31.952 185.953 31.952C188.257 31.952 190.348 32.3573 192.225 33.168C194.145 33.9787 195.766 35.152 197.089 36.688C198.412 38.1813 199.436 40.016 200.161 42.192C200.886 44.3253 201.249 46.7147 201.249 49.36C201.249 52.0053 200.886 54.416 200.161 56.592C199.436 58.7253 198.412 60.56 197.089 62.096C195.766 63.5893 194.145 64.7413 192.225 65.552C190.348 66.3627 188.257 66.768 185.953 66.768ZM185.953 61.008C188.342 61.008 190.262 60.2827 191.713 58.832C193.164 57.3387 193.889 55.12 193.889 52.176V46.544C193.889 43.6 193.164 41.4027 191.713 39.952C190.262 38.4587 188.342 37.712 185.953 37.712C183.564 37.712 181.644 38.4587 180.193 39.952C178.742 41.4027 178.017 43.6 178.017 46.544V52.176C178.017 55.12 178.742 57.3387 180.193 58.832C181.644 60.2827 183.564 61.008 185.953 61.008Z" fill="black"/>
<path d="M235 67C235 56.5066 243.507 48 254 48" stroke="black" stroke-width="5"/>
<path d="M227 21C227 31.4934 218.493 40 208 40" stroke="black" stroke-width="5"/>
<path d="M208 48C218.493 48 227 56.5066 227 67" stroke="black" stroke-width="5"/>
<path d="M254 40C243.507 40 235 31.4934 235 21" stroke="black" stroke-width="5"/>
</svg>


